# xmcd CD database file
#
# Track frame offsets:
#	150
#	2197
#	19019
#	31732
#	46069
#	55855
#	68206
#	86409
#	102496
#	119549
#	143821
#	160874
#	171334
#	202696
#
# Disc length: 2949 seconds
#
# Revision: 0
# Processed by: cddbd v1.5.1PL0 Copyright (c) Steve Scherf et al.
# Submitted via: CDex 1.60beta1
#
DISCID=af0b830e
DTITLE=Faithless - No Roots
DYEAR=2005
DGENRE=New Age
TTITLE0=01 Introduction - quick
TTITLE1=02 Mass Destruction - quick
TTITLE2=03 I Want More Part 1 - quick
TTITLE3=04 I Want More Part 2 - quick
TTITLE4=05 Love Lives on My Street - quick
TTITLE5=06 Bluegrass - quick
TTITLE6=07 Sweep - quick
TTITLE7=08 Miss You Less See You More - quick
TTITLE8=10 Swingers - quick
TTITLE9=09 No Roots - quick
TTITLE10=10 Swingers - quick
TTITLE11=12 Everything Will Be Alright Tomorrow - quick
TTITLE12=13 What About Love - quick
TTITLE13=14 In the End - quick
EXTD=YEAR: 2005
EXTT0=
EXTT1=
EXTT2=
EXTT3=
EXTT4=
EXTT5=
EXTT6=
EXTT7=
EXTT8=
EXTT9=
EXTT10=
EXTT11=
EXTT12=
EXTT13=
PLAYORDER=
